<svg xmlns="http://www.w3.org/2000/svg" viewBox="0 0 300 249.6"><title>family_icon</title><g id="Layer_2" data-name="Layer 2"><g id="Layer_6" data-name="Layer 6"><path d="M290.8,142.2c10.4-23.4,12.8-51.1,0-73.4-8.8-15.2-23.9-26.6-40.3-34.7S216.3,21,198.7,15.5C167,5.6,133-5.7,100.9,3.2c-29,8.2-50,31.2-69.1,53.2C20.9,68.9,9.6,82.2,6.8,98.1c-2.1,11.9.9,24.2-1.6,36.1-1.9,8.9-6.8,17.9-4.2,26.7,1.7,5.6,6.3,10.1,10.8,14.2,32.8,30,71.8,55.7,116.6,64.8,26.4,5.3,54.8,3.9,80.2-4.9A113.5,113.5,0,0,0,244,215.4c5.4-4.4,7.4-7.4,9.2-13.7s4.8-10.5,9.4-16.1C273.7,172.2,283.9,157.9,290.8,142.2Z" fill="#107bc0" opacity="0.02"/><path d="M243.2,165.3c6.8-13.3,8.4-29.2-.1-41.9-5.8-8.8-15.8-15.3-26.6-19.9S193.8,96,182.2,92.9c-21-5.7-43.5-12.2-64.7-7-19.2,4.6-33.1,17.8-45.8,30.4C64.5,123.4,57,131,55.2,140.1c-1.4,6.8.6,13.9-1,20.7-1.3,5.1-4.5,10.2-2.8,15.2,1.1,3.3,4.1,5.8,7.1,8.2,21.7,17.1,47.5,31.8,77.2,37a115.7,115.7,0,0,0,53-2.8,81,81,0,0,0,23.5-11.2c3.5-2.5,4.9-4.2,6.1-7.8s3.2-6,6.2-9.2C231.8,182.5,238.6,174.3,243.2,165.3Z" fill="#107bc0" opacity="0.02"/><g id="plants" opacity="0.05"><path d="M272.3,226.1a15.5,15.5,0,0,1-.4-3.1,4.6,4.6,0,0,1,1.1-2.9,3.6,3.6,0,0,1,3.7-.9,4.2,4.2,0,0,1,2.7,2.8c.6,1.8-.1,3.8-.9,5.5a21,21,0,0,0-2.1,5.2,22.4,22.4,0,0,0,.6,5.8,15.6,15.6,0,0,1,.1,5.7c-.9-.7-1-2.8-1.3-3.8s-.8-3.2-1.3-4.8S273,229.3,272.3,226.1Z" fill="#107bc0"/><path d="M269.8,230.1a22.2,22.2,0,0,1,6.8,14.7c-.8-5-4.9-8.9-9.2-11.5-2.4-1.5-5-2.7-7.5-4.1s-5.5-2.1-3.7-4S267.7,228.2,269.8,230.1Z" fill="#107bc0"/><path d="M275.9,244.9h.6a1.6,1.6,0,0,0,1.3-.9c.4-.8-.3-1.3-.4-1.9a7.1,7.1,0,0,1,.4-2.1,15.6,15.6,0,0,1,1.5-4.1,14.8,14.8,0,0,1,5.8-6.1,11,11,0,0,0,2.5-1.7,2.5,2.5,0,0,0,.5-2.8,2.3,2.3,0,0,0-2.9-.8,6.9,6.9,0,0,0-2.4,2.1,42.5,42.5,0,0,0-3.1,4.3c-1.3,1.8-3.5,4.4-3.4,6.8a21,21,0,0,0,.6,2.4l.3,2.6-.2-.2c-.7-.3-1.4.7-1.5,1.2A.9.9,0,0,0,275.9,244.9Z" fill="#107bc0"/></g><g id="groundlevel" opacity="0.02"><path d="M298.6,249.6H1.4c-.8,0-1.4-1.3-1.4-2.8s.6-2.9,1.4-2.9H298.6c.8,0,1.4,1.3,1.4,2.9S299.4,249.6,298.6,249.6Z" fill="#107bc0"/></g><g id="legs"><path d="M202.3,244.2a.9.9,0,0,1-.8-.4,1.1,1.1,0,0,1,.2-1.4l1.8-1.5a2.9,2.9,0,0,0,1.1-2l1.1-20.9a1,1,0,0,1,1.1-1,1,1,0,0,1,1,1.1L206.7,239a5.2,5.2,0,0,1-1.9,3.6L203,244A.7.7,0,0,1,202.3,244.2Z" fill="#b58360"/><path d="M218.6,243.9a.7.7,0,0,1-.6-.2l-2.3-1.4a4,4,0,0,1-1.9-3.4l-.9-21.1a1.1,1.1,0,0,1,1-1.1h0a1,1,0,0,1,1.1,1l.9,21.1a2.2,2.2,0,0,0,.9,1.7l2.3,1.5a1,1,0,0,1,.4,1.4A1.2,1.2,0,0,1,218.6,243.9Z" fill="#b58360"/></g><g id="head"><ellipse cx="209.2" cy="189.9" rx="6.7" ry="6.1" transform="translate(19 398.8) rotate(-89.9)" fill="#4c3322"/><path d="M214.9,192.1c0,8.3-11.5,8.3-11.5,0S214.9,183.8,214.9,192.1Z" fill="#b58360"/><path d="M211.3,182.3c0,2.8-4.3,2.8-4.3,0S211.3,179.6,211.3,182.3Z" fill="#4c3322"/><path d="M203.3,191.7c1.8,1.1,2.5-2.7,2.8-3.5s.2-1.1,1.4-.8a9.2,9.2,0,0,0,2.8.3c1-.1.8-.3,1.4.4s1.1,1.5,1.8,2.2,1.8,1.7,1.7-.3-4.1-5.4-6.8-5.4-3.6,1.7-4.5,3.3S202.3,191,203.3,191.7Z" fill="#4c3322"/><path d="M215,190.5c-2.1-6.4-9.5-6.4-11.6-.1.5-2.9,2.5-6,5.8-5.9S214.5,187.5,215,190.5Z" fill="#c0e5e5"/><path d="M209.3,196.3a2.3,2.3,0,0,1-2.1-1.6c0-.1,0-.2.1-.2s3.6.2,3.6-.1a.2.2,0,0,1,.2-.2l.2.2A2.1,2.1,0,0,1,209.3,196.3Z" fill="#fff"/></g><g id="hands"><path d="M229.6,217.1h-.1a14.3,14.3,0,0,1-3.9-1.1,16.6,16.6,0,0,1-5.9-4.7,22.5,22.5,0,0,1-4.2-9.5,1,1,0,0,1,.8-1,.8.8,0,0,1,1,.7,25.9,25.9,0,0,0,1.1,3.7,19.3,19.3,0,0,0,2.7,4.9,14.6,14.6,0,0,0,5.2,4.2,11.8,11.8,0,0,0,3.4,1,.9.9,0,0,1,.8,1A.8.8,0,0,1,229.6,217.1Z" fill="#b58360"/><path d="M193.7,206.1l-2.3-.2a14.4,14.4,0,0,1-8.7-6,23.7,23.7,0,0,1-2.6-5.3,22.5,22.5,0,0,1-.9-6.4.9.9,0,1,1,1.8,0,18.5,18.5,0,0,0,.9,5.8,16.9,16.9,0,0,0,2.3,4.9,11.4,11.4,0,0,0,16.7,3,1,1,0,0,1,1.3.3.9.9,0,0,1-.3,1.2A14.9,14.9,0,0,1,193.7,206.1Z" fill="#b58360"/></g><g id="body"><path d="M216.5,212.1V205h.5a2.6,2.6,0,0,0,1.5-3.2,3,3,0,0,0-4.3-1.3,5,5,0,0,0-2.7-.8H207a5.1,5.1,0,0,0-3,.9h-.1c-1.1-1.1-3.8-.5-4.4,1.2a2.6,2.6,0,0,0,1.5,3.2h.9v6.5h0a23.8,23.8,0,0,0-3.4,7.6c-.8,2.8-1.2,4.7-.8,6.1,2.2,6.2,24.1,5.2,26.3-1.7Q225.1,219.9,216.5,212.1Z" fill="#c0e5e5"/><path d="M210.2,214.8a9.3,9.3,0,0,1-2.3-.2,8.9,8.9,0,0,1-6.3-3.6.4.4,0,0,1,.1-.5.4.4,0,0,1,.5.2,7.9,7.9,0,0,0,1.6,1.5,9.3,9.3,0,0,0,4.2,1.7,9.4,9.4,0,0,0,4.8-.2,6,6,0,0,0,3.6-3,.4.4,0,0,1,.5-.2c.2.1.2.3.1.5A7.2,7.2,0,0,1,210.2,214.8Z" fill="#094063"/><path d="M204.4,200.2a9.7,9.7,0,0,0,4,1.1,9.3,9.3,0,0,0,5-1.4l-1.2-.3h-5.7a4.3,4.3,0,0,0-1.9.5Z" fill="#b58360"/></g><g id="f-head"><g id="head-2" data-name="head"><path d="M173.9,157.1s-3.5,12-11,9.3c-1.7-.6-4.9-5.1-4.9-9.3s3.6-10.1,8-10.1S173.9,151.5,173.9,157.1Z" fill="#e29c5e"/></g><g id="hair"><path d="M159.1,152.1a7.9,7.9,0,0,0,12.7,1.4c.6-.7.9-1.4,1.1-1.3s-1.2,3.4-.9,7.2,1.4,3,2,6.4-.7,5.3.2,7.7,6.7,6.1,9.9,4.5,4.3-8.6,2.2-12.8-4.3-4-4.7-7.5.8-2.5.9-5.6a13,13,0,0,0-1.7-7.9c-2.3-3.7-6.3-4.8-8.4-5.4s-6.5-1.8-10.8.7a7.9,7.9,0,0,0-3.7,3.5C155.9,147.1,158.8,151.7,159.1,152.1Z" fill="#252525"/></g><path d="M162.3,162h4.4c.2,0,.4.1.4.3s-.3,2.6-1.8,2.6a3.6,3.6,0,0,1-3.3-2.5C161.9,162.2,162.1,162,162.3,162Z" fill="#fff"/></g><g id="legs-2" data-name="legs"><path d="M158.9,244.2a1.7,1.7,0,0,1-1.2-.5,1.6,1.6,0,0,1,0-2.3l2.6-2.5a4,4,0,0,0,1.3-3.3l-1.2-32.5a1.7,1.7,0,0,1,1.6-1.7,1.6,1.6,0,0,1,1.7,1.6l1.2,32.5a7.4,7.4,0,0,1-2.3,5.8l-2.6,2.5A1.5,1.5,0,0,1,158.9,244.2Z" fill="#e29c5e"/><path d="M177,244.3a1.7,1.7,0,0,1-1-.3l-3.5-2.5a6.9,6.9,0,0,1-2.8-5.3V203.3a1.6,1.6,0,0,1,1.6-1.6h0a1.7,1.7,0,0,1,1.7,1.6v32.9a3.3,3.3,0,0,0,1.3,2.6l3.5,2.4a1.6,1.6,0,0,1,.4,2.3A1.6,1.6,0,0,1,177,244.3Z" fill="#e29c5e"/></g><g id="body-2" data-name="body"><g id="hands_body" data-name="hands&amp;body"><path d="M181.4,198.9c-.8,2.8-2.9.3-3.2-1s.8-3.6,1-5a30.2,30.2,0,0,0-.3-6c-.6-3-1.6-6-2.4-8.9-4.8,5.7-16.2,4-21.5-.3-1.2,4.7-3.2,10.9-1.1,15.5.7,1.5,3.8,4.6,3,6.1s-3.8-1-4.6-2.3c-3-4.7-2.8-9-1.7-14.5.7-3.7,1-10.7,4.9-12.6s11.2-1.2,15.9-.8c3.2.2,5.7.5,7.1,3.7C181.6,180.7,183.8,190.7,181.4,198.9Z" fill="#e29c5e"/></g><path id="gown" d="M156,216.4c-7,1-3.6-6.5-2.4-9.9s3.2-8.8,4.6-13.2-.4-8-2.8-12.3-3.4-9.6,3.2-8.3a61.7,61.7,0,0,0,7.7,1.4c3.2.2,4-.6,6.9-1.3,6.4-1.5,5.6,4.3,3.7,8s-4.6,7.4-2.7,12.1,3.9,8,5.8,11.9,6.2,9,1.3,11.2c-3.3,1.5-8.6.5-12.1.4S160.3,215.7,156,216.4Z" fill="#107bc0"/></g><g id="head-3" data-name="head"><rect x="78.1" y="178.1" width="9.7" height="10.6" rx="4.8" ry="4.8" transform="matrix(1, 0, 0, 1, 0.22, -0.1)" fill="#441e02"/><rect x="76.2" y="181.3" width="13.5" height="9.66" rx="4.8" ry="4.8" transform="translate(-103.3 268.9) rotate(-89.9)" fill="#d5b093"/><path d="M84.6,188.9c.3.1.4.3.3.5a2.1,2.1,0,0,1-2,1.5,2.1,2.1,0,0,1-1.9-1.5.3.3,0,0,1,.3-.5Z" fill="#fff"/><path d="M87.4,183c-.3.1-.9.4-1.3-.6h0a4.9,4.9,0,0,1-3.2.9,4.8,4.8,0,0,1-3.1-.9h0c-.4,1-1,.8-1.3.7s-.4-.1-.1-1.1l.8-1.4h0c.4-1,1.9-1.8,3.7-1.8s3.3.8,3.7,1.8a3.3,3.3,0,0,1,.9,1.4C87.8,182.9,87.8,182.9,87.4,183Z" fill="#441e02"/></g><g id="hands-2" data-name="hands"><path d="M96.9,208.4c-3.4-.8-4.9-5.2-5.3-7a.8.8,0,0,1,.6-1.1.9.9,0,0,1,1,.7c.3,1.2,1.5,5.1,4.2,5.8h.7c2.3-.2,4.8-4.9,6.2-9.6a.9.9,0,0,1,1.1-.5.9.9,0,0,1,.6,1.1,34.7,34.7,0,0,1-2.3,5.5c-1.7,3.4-3.5,5.1-5.5,5.2H96.9Z" fill="#d5b093"/><path d="M63.9,217a.9.9,0,0,1-.6-.4.8.8,0,0,1,.3-1.2l1.7-1.2a18.5,18.5,0,0,0,5.5-7,27.6,27.6,0,0,0,2.1-6.7.8.8,0,0,1,1-.7h0a.8.8,0,0,1,.7,1,31.8,31.8,0,0,1-2.2,7.2,21,21,0,0,1-6.1,7.6l-1.9,1.3Z" fill="#d5b093"/></g><g id="legs-3" data-name="legs"><path d="M76.9,244.2a1.1,1.1,0,0,1-.7-.3,1,1,0,0,1,0-1.4l1.6-1.5a2.8,2.8,0,0,0,.8-2l-.7-19.8a.9.9,0,0,1,.9-1,1,1,0,0,1,1.1.9l.7,19.8a4.7,4.7,0,0,1-1.4,3.6L77.6,244Z" fill="#d5b093"/><path d="M90.1,244.2h-.5l-2.2-1.5a4.4,4.4,0,0,1-1.7-3.2v-20a.9.9,0,0,1,1-1h0a.9.9,0,0,1,1,1v20a1.8,1.8,0,0,0,.8,1.5l2.1,1.5a1,1,0,0,1,.3,1.4A.8.8,0,0,1,90.1,244.2Z" fill="#d5b093"/></g><g id="shorts_pockets" data-name="shorts &amp;pockets"><path id="shorts" d="M83.2,223.9v-5.3a.4.4,0,0,0-.1-.3l-.3-1c0-.1-.1-.1-.1,0-.1,2.2-.1,4.5,0,6.7a.4.4,0,0,1-.4.4H75.9a.2.2,0,0,1-.2-.2V214.1h-.1v-1.3H90.3v1.3H90a43.3,43.3,0,0,0,.2,9.5.6.6,0,0,1-.6.6h-6A.4.4,0,0,1,83.2,223.9Z" fill="#107bc0"/><path d="M76.3,216.9h-.5v-.4a2,2,0,0,0,1.7-.2,2.4,2.4,0,0,0,.7-1.9h.4a2.7,2.7,0,0,1-.9,2.2A1.8,1.8,0,0,1,76.3,216.9Z" fill="#c0e5e5"/><path d="M89.3,216.9h.5v-.4a1.8,1.8,0,0,1-1.6-.2,2.3,2.3,0,0,1-.7-1.9h-.4a2.9,2.9,0,0,0,.8,2.2A2.3,2.3,0,0,0,89.3,216.9Z" fill="#c0e5e5"/></g><g id="body-3" data-name="body"><path d="M93.9,202c-.7.1-1.8.7-2.4.6a1.5,1.5,0,0,1-1-.6v11.8a1,1,0,0,1-.9,1H76.2a.9.9,0,0,1-.8-.9V201.7c-.5.8-.8.9-2,.6s-1.8-.3-1.8-1.6a11.7,11.7,0,0,1,2.4-5.6c1.5-1.3,5.2-.9,7.1-1h3.7c2.1.2,6.2-.3,7.6,1.7S95.2,201.6,93.9,202Z" fill="#c0e5e5"/><path d="M85,194.2h.1c1.2.8-1.4,2.1-2.1,2.1s-3.1-1.2-2.3-2S84.2,194,85,194.2Z" fill="#d5b093"/></g><g id="legs-4" data-name="legs"><path d="M112.5,244.2a1.2,1.2,0,0,1-1-.4,1.4,1.4,0,0,1,0-2l2.2-2a3.6,3.6,0,0,0,1.1-2.8l-1-27.5a1.4,1.4,0,0,1,1.3-1.4,1.4,1.4,0,0,1,1.5,1.3l1,27.5a6.3,6.3,0,0,1-2,4.9l-2.2,2.1A1,1,0,0,1,112.5,244.2Z" fill="#d0b195"/><path d="M138.5,244.2a1.1,1.1,0,0,1-.8-.3l-3-2.1a5.4,5.4,0,0,1-2.3-4.4V209.6a1.4,1.4,0,0,1,1.4-1.4h0a1.4,1.4,0,0,1,1.4,1.4v27.8a2.8,2.8,0,0,0,1.1,2.2l3,2a1.4,1.4,0,0,1,.3,2A1.5,1.5,0,0,1,138.5,244.2Z" fill="#d0b195"/></g><g id="head-4" data-name="head"><rect x="116.8" y="121" width="12.7" height="13.91" rx="6.3" ry="6.3" transform="translate(0.2 -0.1) rotate(0.1)" fill="#1a1a1a"/><rect x="114.3" y="125.2" width="17.7" height="12.67" rx="6.3" ry="6.3" transform="translate(-8.6 254.5) rotate(-89.9)" fill="#d0b195"/><path d="M116.8,133a21.2,21.2,0,0,1,6.3-1.2,21.8,21.8,0,0,1,6.4.7,17.9,17.9,0,0,1-.1,2.1c-.1,2.4-.1,4-1,5.2s-4.6,1.7-5.4,1.7-3.7-.2-5.1-2.3a6.8,6.8,0,0,1-1-3.5A8.5,8.5,0,0,1,116.8,133Z" fill="#1a1a1a"/><path d="M125.3,135.3c.4,0,.6.3.4.6a2.9,2.9,0,0,1-2.6,1.9,3,3,0,0,1-2.6-1.9c-.1-.3.1-.7.4-.7Z" fill="#fff"/><path d="M129,128.8c-.5.2-1.2-.8-1.7-2.1h0a6.6,6.6,0,0,1-4.2,1.4,6.3,6.3,0,0,1-4.1-1.4h0c-.5,1.3-1.3,2.2-1.8,2.1s-.5-1.4,0-2.7a4.3,4.3,0,0,1,1.1-1.8h0c.5-1.4,2.4-2.4,4.8-2.4s4.3,1,4.8,2.3a5.6,5.6,0,0,1,1.1,1.9C129.5,127.4,129.5,128.6,129,128.8Z" fill="#1a1a1a"/></g><path d="M143,200c-.2-.1-.4-.1-.6-.3a1.6,1.6,0,0,1-.3-2.2A19,19,0,0,0,143,180a1.9,1.9,0,0,1,.6-2.2,1.5,1.5,0,0,1,2,.6,21.9,21.9,0,0,1,2,10.5,21.6,21.6,0,0,1-3.2,10.4A1.3,1.3,0,0,1,143,200Z" fill="#d0b195"/><path d="M106,200.3h-.3a4,4,0,0,1-3.2-1.7,9.5,9.5,0,0,1-1.3-2.7c-1.4-4.7-1.1-9.7-.8-14.1a1.5,1.5,0,0,1,1.5-1.4,1.5,1.5,0,0,1,1.4,1.5c-.3,4.4-.6,9,.7,13.2a3.8,3.8,0,0,0,.8,1.7,1.5,1.5,0,0,0,1,.7,1.5,1.5,0,0,1,1.4,1.5A1.5,1.5,0,0,1,106,200.3Z" fill="#d0b195"/><path d="M149.1,153.1c0,9.3-.1,18.8-.1,28.2,0,1.6.3,2.4-1.3,2.9s-6.1.6-6.9-.8-.2-3-.3-3.9l-.6-8.9-1.2-15.5c.9,4.9.2,10.6.2,15.6,0,1.4.5,3.6-.9,4.3s-3.1,0-4.1,0H116.1c-1.7,0-4.1.4-5.7,0s-1.3-1-1.4-2.4c-.2-5.5-.8-12.1.3-17.6l-2,24.9c-.1.8.1,2.6-.3,3.4s-3.5.8-5,.8-2.7.4-3.2-1.1,0-3.2,0-4.5c0-8.4-.4-17,.1-25.4.6-11.6,15.7-9.6,23.9-9.8,4.3-.1,8.7.3,13,.4a39.4,39.4,0,0,1,6,.4A9.3,9.3,0,0,1,149.1,153.1Z" fill="#107bc0"/><path d="M139.5,175.5v48.2a71.2,71.2,0,0,1,0,8c-.4,3.3-5.1,3.2-7.9,2.6s-2.6-4.3-2.9-6.7l-1.5-13.7c-.2-1.8-2.3-24.5-3.1-24.5s-1.6,28.7-1.7,31.1.4,8.5-.6,12.1-4.1,1.7-6.3,1.7-6.3.9-7-1.9,0-6.1,0-8.8V184.8c0-3-.7-7,0-10s2.6-1.6,4.4-1.6H134C135.9,173.2,139.5,172.6,139.5,175.5Z" fill="#094063"/><path d="M113.4,177.9a1.1,1.1,0,0,1-1-.9,128,128,0,0,1,1.5-32.7,1,1,0,0,1,1.9.4,124,124,0,0,0-1.5,32.2.8.8,0,0,1-.8,1Z" fill="#094063"/><path d="M134.6,177.9h-.1a.8.8,0,0,1-.8-1,123.9,123.9,0,0,0-1.1-32.2.9.9,0,0,1,.7-1.1c.6-.1,1.1.2,1.1.8a119.5,119.5,0,0,1,1.2,32.7A1,1,0,0,1,134.6,177.9Z" fill="#094063"/><path d="M114.4,177a1,1,0,0,1-2,0A1,1,0,0,1,114.4,177Z" fill="#107bc0"/><path d="M135.2,177a1,1,0,0,1-2,0A1,1,0,0,1,135.2,177Z" fill="#107bc0"/></g></g></svg>