<svg xmlns="http://www.w3.org/2000/svg" viewBox="0 0 299.2 243"><title>hr_manager</title><g id="Layer_2" data-name="Layer 2"><g id="Layer_6" data-name="Layer 6"><g id="iconbg"><path d="M290.6,142.2c10.3-23.4,12.7-51.1-.1-73.4-8.8-15.2-23.9-26.6-40.3-34.7S216,21,198.4,15.5C166.7,5.6,132.7-5.7,100.7,3.2c-29.1,8.2-50,31.2-69.2,53.2C20.6,68.9,9.3,82.2,6.5,98.1c-2.1,11.9.9,24.2-1.6,36.1-1.8,8.9-6.8,17.9-4.2,26.7C2.4,166.5,7,171,11.5,175.1c32.8,30,71.8,55.7,116.6,64.8,26.4,5.3,54.8,3.9,80.2-4.9a113.5,113.5,0,0,0,35.4-19.6c5.4-4.4,7.4-7.4,9.2-13.7s4.8-10.5,9.4-16.1C273.4,172.2,283.6,157.9,290.6,142.2Z" fill="#107bc0" opacity="0.02"/><path d="M257.4,164.3c7.9-17.9,9.8-39.1,0-56.1-6.7-11.7-18.3-20.4-30.8-26.6s-26.2-10-39.6-14.2c-24.3-7.5-50.3-16.2-74.8-9.4-22.3,6.2-38.3,23.9-53,40.7-8.3,9.5-16.9,19.7-19.1,31.9-1.6,9.1.7,18.5-1.2,27.6-1.4,6.8-5.2,13.7-3.2,20.4,1.3,4.4,4.8,7.8,8.3,10.9,25.1,22.9,54.9,42.7,89.2,49.6,20.2,4,41.9,3,61.3-3.8a89.4,89.4,0,0,0,27.1-14.9c4.1-3.5,5.7-5.8,7-10.5s3.7-8.1,7.2-12.3C244.3,187.3,252.1,176.4,257.4,164.3Z" fill="#107bc0" opacity="0.02"/></g><path d="M91.3,131.2c-28.5,0-25.4,31.1-25.2,53.6a2.3,2.3,0,0,0,1.3,2,53,53,0,0,0,47.8,0,2.2,2.2,0,0,0,1.4-2C116.7,162.3,119.9,131.2,91.3,131.2Z" fill="#333"/><path d="M118.6,196.6l-16-6.8a3.1,3.1,0,0,1-1.7-1.3,4,4,0,0,0-3.4-2H86.9a7.2,7.2,0,0,0-5.5,2.4,3,3,0,0,1-1.3.9L64,196.6a5.3,5.3,0,0,0-3.3,4.9h0a10.8,10.8,0,0,0,10.8,10.9h42.9a7.6,7.6,0,0,0,7.6-7.6v-3.3A5.3,5.3,0,0,0,118.6,196.6Z" fill="#b58360"/><path d="M118.6,196.6l-15.5-6.5-11.8,5-11.7-5L64,196.6a5.3,5.3,0,0,0-3.3,4.9h0a10.8,10.8,0,0,0,10.8,10.9h39.6A10.9,10.9,0,0,0,122,201.5h0A5.3,5.3,0,0,0,118.6,196.6Z" fill="#5098d2"/><path d="M100.3,147.5c-9,9-26.7,1.8-26.7,16.2l1.1,10.6a7.5,7.5,0,0,0,3.7,5.7l2.9,1.5a20.6,20.6,0,0,0,20.1,0l2.8-1.5a7.3,7.3,0,0,0,3.7-5.7l1.3-12.6a24.4,24.4,0,0,0,.1-2.7C108.6,154.4,102.1,151.1,100.3,147.5Z" fill="#b58360"/><path d="M91.6,208.8H91a1.6,1.6,0,0,1-1.5-1.6v-12h3.6v12A1.6,1.6,0,0,1,91.6,208.8Z" fill="#89cbf0"/><path d="M91.3,195.1,81,187.4a1.5,1.5,0,0,0-2.1.4l-2,3,6.3,8.9a1.5,1.5,0,0,0,2.1.3Z" fill="#89cbf0"/><path d="M91.3,195.1l10.3-7.7a1.5,1.5,0,0,1,2.1.4l2,3-6.3,8.9a1.5,1.5,0,0,1-2.1.3Z" fill="#89cbf0"/><path d="M104.5,208.8H99.8a3,3,0,0,0-3.1,3v.6h10.8v-.6A2.9,2.9,0,0,0,104.5,208.8Z" fill="#89cbf0"/><path d="M214.5,188.6h0a3.8,3.8,0,0,0-3.8-3.8H192.9a3.8,3.8,0,0,0-3.9,3.8h0l12.8,11.3Z" fill="#e5af78"/><path d="M234.2,192.8l-17.5-4.1-.8-.3-14.1,8.3L188.1,188a2.9,2.9,0,0,1-1.2.7l-17.6,4.1a5.7,5.7,0,0,0-4.3,5.5v11.1a2.9,2.9,0,0,0,2.8,2.8h56.8a13.9,13.9,0,0,0,13.9-13.9h0A5.7,5.7,0,0,0,234.2,192.8Z" fill="#c0e5e5"/><path d="M183.4,142.3l1.2,27.1a8.6,8.6,0,0,0,3.4,6.4l3.6,2.7a16.9,16.9,0,0,0,10.2,3.4h0a16.8,16.8,0,0,0,10.1-3.4l3.6-2.7a8.3,8.3,0,0,0,3.4-6.4l.9-19.6a7.2,7.2,0,0,0-7.2-7.5Z" fill="#eebf85"/><polygon points="205.3 212.2 198.2 212.2 199.1 199.5 204.4 199.5 205.3 212.2" fill="#094063"/><path d="M205.3,196.7h-7.1v.8a3.5,3.5,0,0,0,3.5,3.4h.2a3.4,3.4,0,0,0,3.4-3.4v-.8Z" fill="#094063"/><path d="M205.3,196.7h-7.1v.8a3.5,3.5,0,0,0,3.5,3.4h.2a3.4,3.4,0,0,0,3.4-3.4v-.8Z" opacity="0.05"/><path d="M188.8,185l13,11.7a44,44,0,0,0-8.1,5.5,1.9,1.9,0,0,1-2.8-.7l-6.1-13.3,1.9-2.9A1.4,1.4,0,0,1,188.8,185Z" fill="#c0e5e5"/><path d="M214.7,185l-12.9,11.7a48.2,48.2,0,0,1,8.1,5.5,1.9,1.9,0,0,0,2.8-.7l6-13.3-1.9-2.9A1.4,1.4,0,0,0,214.7,185Z" fill="#c0e5e5"/><g opacity="0.05"><path d="M188.8,185l13,11.7a44,44,0,0,0-8.1,5.5,1.9,1.9,0,0,1-2.8-.7l-6.1-13.3,1.9-2.9A1.4,1.4,0,0,1,188.8,185Z"/><path d="M214.7,185l-12.9,11.7a48.2,48.2,0,0,1,8.1,5.5,1.9,1.9,0,0,0,2.8-.7l6-13.3-1.9-2.9A1.4,1.4,0,0,0,214.7,185Z"/></g><path d="M210.3,132.9l1.4,9.4c6,1.2,6.9,10.7,7,13.4a2.7,2.7,0,0,0,.5,1.4v3.5s1.4-5.9,5-9.9C224.3,150.7,225.5,127.2,210.3,132.9Z" fill="#534741"/><path d="M184.7,130.4l2.1,1.4c-9.4,7-7.7,18.9-7.7,18.9,2.9,2.9,2.9,9.9,2.9,9.9l2.8-2.8s-1.1-8.2,4.2-11.3,9.3-1.4,13.7-1.4c11.9,0,15.2-4.5,14.6-9.9-.3-2.8-4.6-8.7-15.5-8.5C197.3,126.8,189,128.1,184.7,130.4Z" fill="#534741"/><path d="M218.7,209.4h-7a2.9,2.9,0,0,0-2.9,2.8h12.8A2.9,2.9,0,0,0,218.7,209.4Z" opacity="0.05"/><path d="M149.7,95.7c-48.6,0-43.2,44-43,75.9a3.5,3.5,0,0,0,2.3,2.9c5.4,2.4,20.1,8,40.7,8s35.3-5.6,40.6-8a3.4,3.4,0,0,0,2.3-2.9C192.8,139.7,198.2,95.7,149.7,95.7Z" fill="#42210b"/><path d="M196.1,206.8l-27.3-11.4a5.8,5.8,0,0,1-2.8-2.3,7,7,0,0,0-5.9-3.4h-21a6.8,6.8,0,0,0-5.7,3.3,6,6,0,0,1-2.8,2.4l-27.4,11.4a9.2,9.2,0,0,0-5.6,8.5h0a18.4,18.4,0,0,0,18.3,18.4h67.5a18.5,18.5,0,0,0,18.4-18.4h0A9.3,9.3,0,0,0,196.1,206.8Z" fill="#dbb9a0"/><path d="M196.1,206.8l-26.4-11-20,8.6-20-8.6-26.5,11a9.2,9.2,0,0,0-5.6,8.5h0a18.4,18.4,0,0,0,18.3,18.4h67.5a18.5,18.5,0,0,0,18.4-18.4h0A9.3,9.3,0,0,0,196.1,206.8Z" fill="#89cbf0"/><path d="M165,123.3c-15.3,15.4-45.4,3.1-45.4,27.6l1.9,18.1a12.5,12.5,0,0,0,6.2,9.6l6.4,3.5a31.9,31.9,0,0,0,31.1,0l6.4-3.5a12.2,12.2,0,0,0,6.2-9.6l2.2-21.5a34.6,34.6,0,0,0,.2-4.6C179,135.1,168,129.5,165,123.3Z" fill="#dbb9a0"/><path d="M149.7,227.5h0a3,3,0,0,1-3.1-3V204.4h6.1v20.1A2.9,2.9,0,0,1,149.7,227.5Z" fill="#89cbf0"/><path d="M149.7,204.4l-17.6-13.1a2.4,2.4,0,0,0-3.5.6l-3.5,5.2,10.8,15a2.4,2.4,0,0,0,3.5.5Z" fill="#89cbf0"/><path d="M149.7,204.4l17.5-13.1a2.4,2.4,0,0,1,3.5.6l3.5,5.2-10.8,15a2.4,2.4,0,0,1-3.5.5Z" fill="#89cbf0"/><path d="M174.2,227.5H161.9a3,3,0,0,0-3,3.1v3.1h18.3v-3.1A3,3,0,0,0,174.2,227.5Z" fill="#89cbf0"/><g opacity="0.05"><path d="M149.7,227.5h0a3,3,0,0,1-3.1-3V204.4h6.1v20.1A2.9,2.9,0,0,1,149.7,227.5Z"/><path d="M149.7,204.4l-17.6-13.1a2.4,2.4,0,0,0-3.5.6l-3.5,5.2,10.8,15a2.4,2.4,0,0,0,3.5.5Z"/><path d="M149.7,204.4l17.5-13.1a2.4,2.4,0,0,1,3.5.6l3.5,5.2-10.8,15a2.4,2.4,0,0,1-3.5.5Z"/></g><path d="M174.2,227.5H161.9a3,3,0,0,0-3,3.1v3.1h18.3v-3.1A3,3,0,0,0,174.2,227.5Z" opacity="0.05"/><path d="M155.8,169.7a1.3,1.3,0,0,1,1.2,1.9c-1.5,3.4-4.4,5.7-7.8,5.7s-6.4-2.3-7.9-5.7a1.4,1.4,0,0,1,1.2-1.9Z" fill="#fff"/><path d="M96.5,173.7a1.1,1.1,0,0,1,1,1.5,6.5,6.5,0,0,1-12.3,0,1.1,1.1,0,0,1,1-1.5Z" fill="#fff"/><path d="M207.5,170.7a1.1,1.1,0,0,1,1,1.5,6.5,6.5,0,0,1-12.3,0,1.1,1.1,0,0,1,1-1.5Z" fill="#fff"/></g></g></svg>