<svg width="201" height="40" viewBox="0 0 201 40" version="1.1" xmlns="http://www.w3.org/2000/svg" xmlns:xlink="http://www.w3.org/1999/xlink">
<title>logo-white</title>
<desc>Created using Figma</desc>
<g id="Canvas" transform="translate(-3310 -3187)">
<g id="logo-white">
<g id="option 1">
<g id="SVG LOGO 1">
<g id="logo 1">
<g id="TRUST 1">
<use xlink:href="#path0_fill" transform="translate(3310 3202.88)" fill="#FFFFFA"/>
</g>
<g id="HEALTH 1">
<use xlink:href="#path1_fill" transform="translate(3325.87 3187)" fill="#FFFFFA"/>
</g>
</g>
<g id="name 1">
<g id="R 1">
<use xlink:href="#path2_fill" transform="translate(3362.11 3198.64)" fill="#FFFFFA"/>
</g>
<g id="e 3">
<use xlink:href="#path3_fill" transform="translate(3375.94 3204.28)" fill="#FFFFFA"/>
</g>
<g id="l 1">
<use xlink:href="#path4_fill" transform="translate(3390.34 3197.43)" fill="#FFFFFA"/>
</g>
<g id="i 1">
<use xlink:href="#path5_fill" transform="translate(3395.88 3198.64)" fill="#FFFFFA"/>
</g>
<g id="a 1">
<use xlink:href="#path6_fill" transform="translate(3401.22 3204.23)" fill="#FFFFFA"/>
</g>
<g id="n 1">
<use xlink:href="#path7_fill" transform="translate(3414.45 3204.33)" fill="#FFFFFA"/>
</g>
<g id="c 1">
<use xlink:href="#path8_fill" transform="translate(3427.54 3204.21)" fill="#FFFFFA"/>
</g>
<g id="e 2">
<use xlink:href="#path9_fill" transform="translate(3439.32 3204.28)" fill="#FFFFFA"/>
</g>
<g id="H 1">
<use xlink:href="#path10_fill" transform="translate(3453.84 3198.64)" fill="#FFFFFA"/>
</g>
<g id="M 1">
<use xlink:href="#path11_fill" transform="translate(3471.53 3198.64)" fill="#FFFFFA"/>
</g>
<g id="O 1">
<use xlink:href="#path12_fill" transform="translate(3492.61 3198.13)" fill="#FFFFFA"/>
</g>
</g>
</g>
</g>
</g>
</g>
<defs>
<path id="path0_fill" d="M 15.9954 3.7565L 15.9954 4.62255e-07L 3.99886 4.62255e-07C 2.90826 4.62255e-07 1.93884 0.48471 1.21177 1.21177C 0.48471 1.93884 0 3.15061 0 4.36239C 0.121177 6.4224 1.93884 8.11889 4.12003 8.11889L 15.9954 8.11889L 15.9954 20.1155C 15.9954 22.4178 18.0554 24.2355 20.2366 24.1143C 22.2966 23.9931 23.9931 22.1755 23.9931 19.9943L 23.9931 8.11889L 20.2366 8.11889C 17.8131 7.99771 15.9954 6.18005 15.9954 3.7565Z"/>
<path id="path1_fill" d="M 23.9931 19.6365C 23.872 17.5765 22.0543 15.88 19.8731 15.88L 7.99771 15.88L 7.99771 4.00458C 7.99771 1.70221 5.9377 -0.115452 3.7565 0.00572537C 1.69648 0.126903 4.62255e-07 1.94456 4.62255e-07 4.12576L 4.62255e-07 16.0011L 3.7565 16.0011C 6.05887 16.0011 7.99771 17.94 7.99771 20.2424L 7.99771 23.9989L 19.9943 23.9989C 21.0849 23.9989 22.0543 23.5141 22.7814 22.7871C 23.6296 21.9388 23.9931 20.8482 23.9931 19.6365Z"/>
<path id="path2_fill" d="M 0 4.62255e-07L 4.36239 4.62255e-07C 6.78593 4.62255e-07 9.93655 0.242355 10.906 2.90826C 11.9966 6.05887 10.0577 8.84595 6.90711 9.33066L 11.8754 17.3284L 9.33066 17.3284L 4.60474 9.57302L 1.93884 9.57302L 1.93884 17.3284L 0 17.3284L 0 4.62255e-07ZM 2.06002 7.63418L 3.87768 7.63418C 5.69534 7.63418 8.48242 7.75535 8.96713 5.57416C 9.57302 2.78708 7.02829 1.93884 4.8471 1.93884L 1.93884 1.93884L 1.93884 7.63418L 2.06002 7.63418Z"/>
<path id="path3_fill" d="M 10.885 9.62817C 8.94616 12.0517 5.18966 12.7788 2.52375 11.0823C 0.221382 9.50699 -0.505682 6.35638 0.34256 3.81165C 1.31198 1.14575 3.97788 -0.308381 6.76496 0.0551516C 9.7944 0.539861 11.2485 3.08459 11.2485 5.99285L 11.2485 6.59873L 2.03904 6.59873C 2.2814 10.4764 7.1285 11.3247 9.43087 8.53757L 10.885 9.62817ZM 9.30969 4.90225C 9.18851 0.53986 2.64493 0.782215 2.16022 4.90225L 9.30969 4.90225Z"/>
<path id="path4_fill" d="M 3.69804e-06 4.62255e-07L 1.93884 4.62255e-07L 1.93884 18.419L 3.69804e-06 18.419L 3.69804e-06 4.62255e-07Z"/>
<path id="path5_fill" d="M 1.36325 4.62255e-07C 3.18091 4.62255e-07 3.18091 2.78708 1.36325 2.78708C -0.454415 2.78708 -0.454415 4.62255e-07 1.36325 4.62255e-07ZM 0.393823 5.81652L 2.33267 5.81652L 2.33267 17.2072L 0.393823 17.2072L 0.393823 5.81652Z"/>
<path id="path6_fill" d="M 0.510276 1.79561C 2.20676 0.0991212 5.2362 -0.506765 7.41739 0.462654C 9.23506 1.18972 9.84094 3.00738 9.84094 4.94622L 9.84094 9.91449C 9.84094 10.5204 9.96212 11.2474 9.96212 11.8533L 8.14446 11.8533C 8.02328 11.3686 8.02328 10.6416 8.02328 10.1568C 6.08444 13.3075 -0.459136 12.7016 0.0255735 8.33919C 0.389106 4.94622 4.63031 4.82504 7.17503 4.82504L 7.90211 4.82504L 7.90211 4.46151C 7.90211 1.18972 3.41853 1.55325 1.72205 3.24973L 0.510276 1.79561ZM 6.08444 6.15799C 4.99385 6.15799 3.41854 6.27917 2.5703 7.12741C 1.84323 7.85448 1.96441 9.30861 2.81265 9.91449C 5.11502 11.611 7.9021 9.30861 8.02328 6.88506L 8.02328 6.15799L 6.08444 6.15799Z"/>
<path id="path7_fill" d="M 0.121181 2.90883C 0.121181 1.81823 -3.69804e-06 0.969986 -3.69804e-06 0.242922L 1.81766 0.242922C 1.81766 0.848809 1.81766 1.4547 1.81766 2.18176C 2.78708 0.121745 5.45299 -0.362965 7.39183 0.242922C 9.20949 0.969986 9.93655 2.78765 9.93655 4.60531L 9.93655 11.6336L 8.24006 11.6336L 8.24006 4.72649C 8.24006 2.66647 6.90711 1.21234 4.72592 1.69705C 2.6659 2.18176 2.06002 4.1206 2.06002 6.05944L 2.06002 11.6336L 0.121181 11.6336L 0.121181 2.90883Z"/>
<path id="path8_fill" d="M 8.72477 3.15194C 7.63417 1.81899 5.69534 1.33428 3.99886 2.18252C 2.66591 2.90959 1.93884 4.36372 1.93884 5.81785C 1.93884 7.39315 2.54473 8.96846 3.99886 9.8167C 5.57417 10.6649 7.63417 10.3014 8.72477 8.84728L 10.1789 10.1802C 8.48242 12.1191 5.3318 12.4826 3.15061 11.392C 1.09059 10.4226 0 8.24139 0 6.0602C 0 3.75783 1.09059 1.69781 3.15061 0.607216C 5.45298 -0.483381 8.48242 -0.119849 10.3001 1.81899L 8.72477 3.15194Z"/>
<path id="path9_fill" d="M 10.885 9.62817C 8.94615 12.0517 5.18966 12.7788 2.52376 11.0823C 0.221385 9.50699 -0.505683 6.35638 0.342559 3.81165C 1.31198 1.14575 3.97789 -0.308381 6.76497 0.0551516C 9.7944 0.539861 11.2485 3.08459 11.2485 5.99285L 11.2485 6.59873L 2.03904 6.59873C 2.2814 10.4764 7.12849 11.3247 9.43087 8.53757L 10.885 9.62817ZM 9.18851 4.90225C 9.06734 0.53986 2.52375 0.782215 2.03904 4.90225L 9.18851 4.90225Z"/>
<path id="path10_fill" d="M -3.69804e-06 4.62255e-07L 2.06002 4.62255e-07L 2.06002 7.27065L 11.2695 7.27065L 11.2695 4.62255e-07L 13.3295 4.62255e-07L 13.3295 17.3284L 11.2695 17.3284L 11.2695 9.33066L 2.06002 9.33066L 2.06002 17.3284L -3.69804e-06 17.3284L -3.69804e-06 4.62255e-07Z"/>
<path id="path11_fill" d="M 3.69804e-06 4.62255e-07L 3.02944 4.62255e-07L 8.84596 13.5719L 14.7836 4.62255e-07L 17.8131 4.62255e-07L 17.8131 17.3284L 15.7531 17.3284L 15.7531 2.78708L 9.57301 17.3284L 8.36124 17.3284L 2.1812 2.78708L 2.1812 17.3284L 0.12117 17.3284L 0.12117 4.62255e-07L 3.69804e-06 4.62255e-07Z"/>
<path id="path12_fill" d="M -3.69804e-06 9.11382C -3.69804e-06 5.35732 2.18119 1.84318 5.81652 0.510225C 9.45184 -0.701549 13.693 0.26787 16.1166 3.17613C 18.419 6.08439 18.6613 10.4468 16.8437 13.7186C 14.9048 17.1115 10.906 18.5657 7.14948 17.9598C 2.90827 17.3539 -3.69804e-06 13.4762 -3.69804e-06 9.11382ZM 15.8742 9.11382C 15.8742 6.20556 14.2989 3.41848 11.5119 2.32789C 8.72477 1.23729 5.45298 2.08553 3.63532 4.3879C -0.242359 9.35618 3.7565 17.2327 10.3001 16.1421C 13.693 15.6574 15.8742 12.5068 15.8742 9.11382Z"/>
</defs>
</svg>
