<svg xmlns="http://www.w3.org/2000/svg" viewBox="0 0 300 246.5"><title>pec-icon</title><g id="Layer_2" data-name="Layer 2"><g id="actualsize"><g id="sel-ext"><path d="M121.2,241.1h0a1.1,1.1,0,0,0,.9-.9c-.6-9.5-2.5-40.5-3.1-41.8a2.1,2.1,0,0,0-1.3-1.1,3.2,3.2,0,0,0-2.4.8.8.8,0,0,0,0,1.2,1,1,0,0,0,1.3.1h0a1.3,1.3,0,0,1,.7-.4h0c.4,1.7,2,25.6,3,41.3A.9.9,0,0,0,121.2,241.1Z" fill="#3d3c3e"/><g id="head"><path d="M96.9,145.2a7.7,7.7,0,0,1-7.4-5.9c-.6-2.9-.1-6.3,2.1-8.5a7.4,7.4,0,0,1,9.4-.9,6.9,6.9,0,0,1,3.1,4,9.7,9.7,0,0,1,.3,3.8A7.6,7.6,0,0,1,96.9,145.2Z" fill="#bdbdbd"/><path d="M96.9,151.8a8.2,8.2,0,0,1-6-3,8.3,8.3,0,0,1-1.6-5v-4.7a8.9,8.9,0,0,1,1.1-4.8,7.6,7.6,0,0,1,11.8-1.5c2.7,2.7,2.3,6.4,2.2,9.9a9.7,9.7,0,0,1-1,5.3A7.6,7.6,0,0,1,96.9,151.8Z" fill="#926440"/><path d="M89.3,144.1a25.1,25.1,0,0,1,15.1-.7c.2,3.4.2,8.1-3.2,10a8.9,8.9,0,0,1-6.2.5,7.1,7.1,0,0,1-4.5-3.2A12.4,12.4,0,0,1,89.3,144.1Z" fill="#bdbdbd"/><path d="M99.5,145.6c1.2,0,0,1.7-.3,2a3.1,3.1,0,0,1-4.6,0c-.4-.5-1.5-1.8-.3-2a11.3,11.3,0,0,1,2.6,0Z" fill="#fff"/><path d="M103.9,137.9c-.6.2-1.5-.9-2-2.5h-.1c-2.4,2.3-7.4,2.3-9.9,0h0c-.5,1.6-1.5,2.7-2,2.5s-.6-1.7-.1-3.2a5.5,5.5,0,0,1,1.3-2.2h0c.8-2.1,3.8-2.8,5.8-2.8s4.9.7,5.7,2.8a4.6,4.6,0,0,1,1.3,2.2C104.5,136.3,104.5,137.7,103.9,137.9Z" fill="#bdbdbd"/></g><g id="cap"><path d="M104.4,135.6H89.8c-.2,0-.4,0-.5-.2s0-.9,0-1.1a5.7,5.7,0,0,1,.4-1.4,6.5,6.5,0,0,1,3.6-3.7,10.2,10.2,0,0,1,4.2-.6,7.2,7.2,0,0,1,4.9,1.8,8.5,8.5,0,0,1,1.7,2.5C104.2,133.2,104.8,135.6,104.4,135.6Z" fill="#107bc0"/><path d="M90.7,133.8a1.3,1.3,0,0,1-1.2-1.6,1.2,1.2,0,0,1,1.2-.5,1.5,1.5,0,0,1,1,.7,1.1,1.1,0,0,1-.5,1.3Zm-.2-1.7a.6.6,0,0,0-.6.3.7.7,0,0,0,.2.8h0a1,1,0,0,0,.9.2.7.7,0,0,0-.3-1.3Z" fill="#89cbf0"/><path d="M94,133.6h-.4a1.3,1.3,0,0,1-.7-.5h0a1,1,0,0,1-.1-1.2,1.3,1.3,0,0,1,.7-.6,1,1,0,0,1,.9.4c.5.5.7,1.6-.1,1.9Zm-.3-2h-.1a.4.4,0,0,0-.4.4.8.8,0,0,0,0,.8h0l.5.3h.4c.2,0,.3-.2.3-.4a.9.9,0,0,0-.3-.9A.5.5,0,0,0,93.7,131.6Z" fill="#89cbf0"/><path d="M97,133.4h-.3a.9.9,0,0,1-.6-.4h0a1.3,1.3,0,0,1-.2-.9v-.2a.6.6,0,0,1,.2-.5.8.8,0,0,1,.7-.1h.6a1.1,1.1,0,0,1,.5,1.3l-.4.6Zm-.6-.6a.8.8,0,0,0,.9.1c.2-.1.3-.6.2-.9l-.3-.2h-.8a.1.1,0,0,0-.1.1v.3a1.7,1.7,0,0,0,.1.7Z" fill="#89cbf0"/><path d="M100.3,133.4h-.4c-.8-.2-1.3-1.4-.5-1.9a.9.9,0,0,1,1,0,1.3,1.3,0,0,1,.8.8,1,1,0,0,1-.4,1Zm-.4-1.6h-.3c-.2.1-.2.4-.2.7s.2.4.6.5h.6a.4.4,0,0,0,.2-.5c0-.2-.3-.5-.6-.6Z" fill="#89cbf0"/><path d="M103.6,133.5h-.4a1.5,1.5,0,0,1-.9-1.1.9.9,0,0,1,.4-.7,1,1,0,0,1,.9,0,1.4,1.4,0,0,1,.7,1.1A.8.8,0,0,1,103.6,133.5Zm-.2-.4h.4a.6.6,0,0,0,.1-.4.8.8,0,0,0-.5-.7h-.5c-.1.1-.2.2-.2.3a1.1,1.1,0,0,0,.7.8Z" fill="#89cbf0"/><path d="M89.5,134.6l-.2-.2v-.2a104.4,104.4,0,0,1,12.5-.4l2.4.2h.2a.2.2,0,0,1-.2.2l-2.4-.2H98.1a81,81,0,0,0-8.6.6Z" fill="#89cbf0"/></g><g id="legs"><path d="M87.5,241a1.8,1.8,0,0,1-1.2-.5,1.7,1.7,0,0,1,.1-2.4l2.5-2.4a4.3,4.3,0,0,0,1.4-3.3l-1.2-32.8a1.6,1.6,0,0,1,1.6-1.7c2.1-.1,1.7,3,1.8,4.4l.3,8.6.7,19a16.2,16.2,0,0,1,.1,2.2,7.6,7.6,0,0,1-2.4,6l-1.6,1.5C89,240.2,88.4,241,87.5,241Z" fill="#926440"/><path d="M108.1,241a5,5,0,0,1-2.5-1.3l-2-1.4a6.6,6.6,0,0,1-2.8-5.4V203.5c0-1.4-.6-5.3,1.7-5.3a1.7,1.7,0,0,1,1.6,1.7v30c0,1.9-.4,4.4,1.4,5.7l2.5,1.7c1,.7,2.4,1.6,1.4,3A1.5,1.5,0,0,1,108.1,241Z" fill="#926440"/></g><g id="trouser_" data-name="trouser &amp;"><path d="M93.8,230.4H89.3c-.8,0-1.8,0-2.2-.8a2.5,2.5,0,0,1-.3-1.7V202a32.3,32.3,0,0,1,0-4.4c.1-1.1,1-1.4,1.9-1.5h2.7a9.7,9.7,0,0,1,2.4.1,1.5,1.5,0,0,1,1.5,1.5,32.3,32.3,0,0,1,0,4.4v25.2C95.4,228.5,95.5,230.4,93.8,230.4Z" fill="#094063"/><path d="M104.9,230.4h-4.5c-.7,0-1.8,0-2.2-.7a3.6,3.6,0,0,1-.3-1.8V202a32.3,32.3,0,0,1,0-4.4c.1-1.1,1-1.4,2-1.5h2.6a10.7,10.7,0,0,1,2.5.1,1.5,1.5,0,0,1,1.4,1.5,32.3,32.3,0,0,1,0,4.4v25.2C106.5,228.5,106.6,230.4,104.9,230.4Z" fill="#094063"/><path d="M92.4,229.3H91.1l-.9-.2a8.3,8.3,0,0,0-3.1-.2c-.1.1-.2,0-.2-.2a.2.2,0,0,1,.1-.3,8.7,8.7,0,0,1,3.2.2h1c2.3.4,3.3-.2,3.9-.7h.2c.1.2.1.3,0,.4A4.1,4.1,0,0,1,92.4,229.3Z" fill="#89cbf0"/><path d="M98.2,228.6l-.2-.2c0-.2,0-.3.1-.3a22.6,22.6,0,0,1,8.2-.3c.1,0,.2.1.2.3a.2.2,0,0,1-.2.2,27.4,27.4,0,0,0-8.1.3Z" fill="#89cbf0"/></g><g id="hands"><path d="M80.3,199.6a1.3,1.3,0,0,1-1.3-.8,20,20,0,0,1-1-2.1c-3.4-8.4-3.3-17.7-1.1-26.4a1.4,1.4,0,0,1,1.7-1.1,1.5,1.5,0,0,1,1.1,1.8,42.6,42.6,0,0,0-1.3,15.5,28.2,28.2,0,0,0,1.5,7c.4,1.1.8,2.2,1.3,3.3s.8,2.1-.3,2.6Z" fill="#926440"/><path d="M116.7,200.9a1.4,1.4,0,0,0,1.2-1.1c.3-.7,1.2-1.7,1.3-2.5,2.2-9.1.6-18.6-2.9-27.2a1.4,1.4,0,0,0-1.8-.8,1.5,1.5,0,0,0-.8,2,48.4,48.4,0,0,1,3.7,16.4,39.4,39.4,0,0,1-.7,7.7,8.3,8.3,0,0,1-.4,1.5,10,10,0,0,1-.8,1.4c-.5.9-.5,2.1.7,2.5Z" fill="#926440"/></g><g id="shirt"><path d="M118.2,170.7c0,.7-.5,1-1.1,1.2l-3.3.8v31a.6.6,0,0,1-.6.6h-33c-.4,0-.6-.2-.6-.5V172.8c-1.2-.3-4.3-.3-4.3-2.1,0-3.8.6-7.9,3.2-10.7s8-4,12.2-4.4c5.9-.5,11.9.3,17.8,1.1a9.4,9.4,0,0,1,5,2.4h.1l.2.2A17.2,17.2,0,0,1,118.2,170.7Z" fill="#107bc0"/><path d="M97.5,164.6a.2.2,0,0,1-.2.2H97a46.6,46.6,0,0,1-3-8.9c0-.1,0-.2.2-.2s.2,0,.2.2a59.2,59.2,0,0,0,2.7,8.1v-8.1l.2-.2.2.2Z" fill="#89cbf0"/><path d="M79.8,203.2l-.2-.2.2-.2a130.3,130.3,0,0,1,15.3-.1c6.1.1,12.4.3,18.5-.6a.2.2,0,0,1,.2.2l-.2.2c-11.2,1.7-22.5-.3-33.8.7Z" fill="#89cbf0"/><path d="M113,171.3h-.1c-.2,0-.2-.1-.2-.2s.1-.2.3-.2a2.3,2.3,0,0,0,1.6-.2l3.3-.9c.1-.1.2,0,.2.1a.4.4,0,0,1-.1.3l-3.3.9A2.5,2.5,0,0,1,113,171.3Z" fill="#89cbf0"/><path d="M79.4,171.6h-.8l-3.2-1.2c-.1,0-.1-.1-.1-.2s.2-.2.3-.1l3.1,1.1h.6c.2,0,1.1-.2.8.2S79.7,171.6,79.4,171.6Z" fill="#89cbf0"/><path d="M108.3,177.4h-6.6a7.5,7.5,0,0,1-.4-1.6c-.1-.8-.3-1.7-.4-2.5s-.3-1.9-.4-2.8-.3-1.5,0-2,1.4-.8,2.3-.8h.8a15.6,15.6,0,0,0,4.3-.8c.4-.2.4,1.9.4,2.2s.1,1.8.1,2.7.1,3.7.1,5.6A.2.2,0,0,1,108.3,177.4Zm-6-.5h5.5c.4-.1.3-.5.3-.9v-2c0-1.3,0-2.7-.1-4v-1.9c-.1-.5,0-1.1-.7-1a11.6,11.6,0,0,0-1.8.4l-1.9.3h-.8c-.6,0-1.8,0-2,.7a7.5,7.5,0,0,0,.2,2.1c.1,1.3.3,2.5.5,3.8S101.7,176.9,102.3,176.9Z" fill="#89cbf0"/></g><path d="M188.3,216.3h11.6a19.5,19.5,0,0,0,4.8-.2,7.4,7.4,0,0,0,5.8-7.4,7.5,7.5,0,0,0-6.2-7.3,24.4,24.4,0,0,0-4.7-.1h-7.4c-1.4,0-2.9-.1-4.3,0a7.5,7.5,0,0,0-2.2,14.6A7.5,7.5,0,0,0,188.3,216.3Z" fill="#388ec9"/><rect x="183.2" y="215.6" width="17.5" height="24.96" fill="#388ec9"/><path d="M177.5,172.1H134.8a6,6,0,0,1,6,6.1v62.4h43.8V179.3A7.1,7.1,0,0,0,177.5,172.1Z" fill="#5098d2"/><path d="M131.1,173.3a8.5,8.5,0,0,0-4,7.3V235a5.6,5.6,0,0,0,5.6,5.6h8.1V178.2C140.8,173.6,135.9,170.3,131.1,173.3Z" fill="#117bbf"/><path d="M144.7,240.6H132.6a5.5,5.5,0,0,1-5.5-5.5V215.6h17.6Z" fill="#117bbf"/><path d="M144.8,216.3H128.1a7.1,7.1,0,0,1-4.6-2.7,7,7,0,0,1-1.5-4.7,7.6,7.6,0,0,1,1.2-4.6,7.1,7.1,0,0,1,4.4-2.9h17.2a7.1,7.1,0,0,1,7,6.5,9.2,9.2,0,0,1-.6,4.3,6.9,6.9,0,0,1-3.8,3.7A7.5,7.5,0,0,1,144.8,216.3Z" fill="#388ec9"/><path d="M152.3,209.1a7.6,7.6,0,0,1-13.5,4.9,7.6,7.6,0,0,1,7.3-12.4A7.7,7.7,0,0,1,152.3,209.1Z" fill="#8acaef"/><path d="M196.1,209.1a7.6,7.6,0,0,0,13.5,4.9,7.6,7.6,0,0,0-7.3-12.4A7.7,7.7,0,0,0,196.1,209.1Z" fill="#8acaef"/><path d="M196.1,240.6h3.8a3.9,3.9,0,0,0,3.8-3.9V209.1h-7.6Z" fill="#8acaef"/><rect x="135" y="223.1" width="63.4" height="17.42" fill="#117bbf"/><path d="M145.1,218.8h59.4a6,6,0,0,1,5.8,4.4,6.2,6.2,0,0,1-5.7,8.1H145.1" fill="#388ec9"/><rect x="144.7" y="209.1" width="7.7" height="31.47" fill="#8acaef"/><circle cx="144.4" cy="209.6" r="1.4" fill="#5098d2"/><circle cx="203.6" cy="209.3" r="1.4" fill="#5098d2"/><g id="grandma"><g id="legs-2" data-name="legs"><path d="M181.8,246.3a1.6,1.6,0,0,0,1.2-.5,1.7,1.7,0,0,0-.1-2.3l-2.6-2.4a3.9,3.9,0,0,1-1.3-3.2l1-32.2a1.7,1.7,0,0,0-3.3-.1l-1,32.2a7.3,7.3,0,0,0,2.4,5.7l2.5,2.4A1.9,1.9,0,0,0,181.8,246.3Z" fill="#b66f4f"/><path d="M161.6,246.5a1.7,1.7,0,0,0,1-.3l3.4-2.4a6.5,6.5,0,0,0,2.7-5.3V206a1.6,1.6,0,0,0-1.6-1.6h-.1a1.6,1.6,0,0,0-1.6,1.6l.2,32.5a3,3,0,0,1-1.4,2.6l-3.4,2.4a1.6,1.6,0,0,0-.4,2.3A1.5,1.5,0,0,0,161.6,246.5Z" fill="#b66f4f"/></g><g id="head-2" data-name="head"><path d="M166.6,168.2a9.9,9.9,0,0,0,.2,1.7c1.8,6.9,11.9,6.8,13.6-.1a9.9,9.9,0,0,0,.2-1.7c0-5.3-3.2-9.7-7.1-9.6S166.5,162.9,166.6,168.2Z" fill="#b66f4f"/><path d="M171.6,171c-1.6.6,1.4,1.9,1.9,2s3.8-2,2-2.2A12.6,12.6,0,0,0,171.6,171Z" fill="#fff"/><path d="M177.8,163.2c-.7,1.9-.2,4.4,1.4,4.7h0c-.2,1.2.1,2.7,1,3a2.1,2.1,0,0,0,2.6-1.6h0c.7.6,1.8.2,2.2-.9a2.1,2.1,0,0,0-1.1-2.5h-.1c.3-4.3-1.2-1.7-2-3.4s1.9-2.4,0-4.2c-.3-.2-1.6-.3-1.7-.7s-.1-1.5-.6-1.8-2.2-.6-2.7.2h-.1a1.7,1.7,0,0,0-1-1.9,1.8,1.8,0,0,0-1.9,1.6c.3-.9-.8-1.7-1.4-1.1a2.5,2.5,0,0,0-.4,2.4l-.5-.4h-.1c-1-.8-2.2-1-2.4.4h-.1a1.2,1.2,0,0,0-2.1-.2,2.4,2.4,0,0,0,.2,2.8c.1.1,0,.1,0,.1a2.4,2.4,0,0,0-2.4.7c-.6.8-.2,2.6.7,2.3a3,3,0,0,0-2.2,1.6c-.4.8,0,2.2.7,2.2h0a2.4,2.4,0,0,0-.5,2.6,1.3,1.3,0,0,0,2.1.5h.1c.5,1.1,1,1.5,1.8.8a2.8,2.8,0,0,0,.6-3.2h.1c.9.2,1.8-.6,2.1-1.7s.5-2.4-.3-2.9h-.1c.4.8.9.7,1.5.2s1.3-1.9.8-2.6c.9,1.2,2.2.7,3.2,1s1.5,1.5,2.5,1.7Z" fill="#b3b3b3"/></g><g id="body"><path d="M187,180.8a24.4,24.4,0,0,0-25.9-.6c-.6.4-1.4.9-1.4,1.5s5.1,2.7,7,3.2c5.5,1.2,13.2,2.9,17.9-1.1A10.6,10.6,0,0,0,187,180.8Z" fill="#b66f4f"/><path d="M190.6,218.9a2.3,2.3,0,0,0,1-.7,32.5,32.5,0,0,0,3.7-15.7,31,31,0,0,0-4.4-15.6,1.7,1.7,0,0,0-2.3-.5,1.7,1.7,0,0,0-.6,2.3,28.6,28.6,0,0,1,.6,27.8,1.7,1.7,0,0,0,.7,2.3A1.2,1.2,0,0,0,190.6,218.9Z" fill="#b66f4f"/><path d="M153.9,218.3h.9a1.6,1.6,0,0,0,1.2-2,42.6,42.6,0,0,1,2.8-28.7,1.7,1.7,0,1,0-3-1.5,44.6,44.6,0,0,0-4.2,15.3,48.6,48.6,0,0,0,1.1,15.7A1.8,1.8,0,0,0,153.9,218.3Z" fill="#b66f4f"/><path d="M187,180c-.7-.3-4.9-2.3-5.5-1.9-6.4,4.7-9.1,3.6-16,.1-.4-.2-4,1.4-4.5,1.5s-4.9,4.5-5.4,5.4-.8,1.1.2,2.2,1.1,1.8,2.1,1.9a5.1,5.1,0,0,0,3.2-1.2c.8-.5,1.5-.3,1.6.6l.5,4c.1,1,.1,13.3.7,14s3.5,1,4.6,1.2a33.9,33.9,0,0,0,6.4.6,49,49,0,0,0,5.4-.4c1-.2,3-.3,3.7-1s.6-13.1.7-14.3v-.5c.4-2-.4-4.1,3.2-1.9a2,2,0,0,0,1.1.3c1.3.1,4.1-1.6,4.1-3.1s-1.8-2.5-2.3-3.1-1.3-1.7-2-2.6S187.7,180.3,187,180Z" fill="#107bc0"/><path d="M158.9,222.1a6.1,6.1,0,0,1-1.3-3.2v-.5a16,16,0,0,1,.5-2.1c.2-1,.5-2.1.7-3.1s.1-.3.1-.4c.7-1.6,1.5-3.1,2.1-4.7a7.5,7.5,0,0,1,2-3h0a1.8,1.8,0,0,1,1.7-.6h1.4a38.2,38.2,0,0,0,6.6-1.2h.5a37.6,37.6,0,0,0,6.7,1.2h1.5a1.7,1.7,0,0,1,1.5.5h0a9.9,9.9,0,0,1,2.1,3.2c.6,1.6,1.3,3,2,4.6l.2.4c.2,1,.4,2.1.7,3.1a15.5,15.5,0,0,1,.4,2.1v.5a6,6,0,0,1-1.2,3.2,6.6,6.6,0,0,1-3.4,2H183l-3-.6a26.7,26.7,0,0,0-6.9-.4h-.3a25.7,25.7,0,0,0-6.8.4l-3,.6h-.7A6.2,6.2,0,0,1,158.9,222.1Z" fill="#89cbf0"/><path d="M158.9,222.1a6.1,6.1,0,0,1-1.3-3.2v-.5a16,16,0,0,1,.5-2.1c.2-1,.5-2.1.7-3.1s.1-.3.1-.4c.7-1.6,1.5-3.1,2.1-4.7a7.5,7.5,0,0,1,2-3h0a1.8,1.8,0,0,1,1.7-.6h1.4a38.2,38.2,0,0,0,6.6-1.2h.5a37.6,37.6,0,0,0,6.7,1.2h1.5a1.7,1.7,0,0,1,1.5.5h0a9.9,9.9,0,0,1,2.1,3.2c.6,1.6,1.3,3,2,4.6l.2.4c.2,1,.4,2.1.7,3.1a15.5,15.5,0,0,1,.4,2.1v.5a6,6,0,0,1-1.2,3.2,6.6,6.6,0,0,1-3.4,2H183l-3-.6a26.7,26.7,0,0,0-6.9-.4h-.3a25.7,25.7,0,0,0-6.8.4l-3,.6h-.7A6.2,6.2,0,0,1,158.9,222.1Z" opacity="0.05"/><path d="M158.3,223.4a51,51,0,0,0,1.5,7.6,19.2,19.2,0,0,0,1.4,3.3,5.3,5.3,0,0,0,1.6,2c1.6,1.4,4,1.7,6.1,1.8l4.1.2,4-.2c2.2-.1,4.5-.4,6.2-1.8a5.3,5.3,0,0,0,1.6-2,13.3,13.3,0,0,0,1.3-3.3,68.5,68.5,0,0,0,1.6-7.6c.1-1.6,1.1-5.7.2-7s-4.9-1.6-6.4-1.8a32.6,32.6,0,0,0-7-.2h-3.1a32.8,32.8,0,0,0-7,.2c-1.5.2-5.4.5-6.3,1.8S158.1,221.8,158.3,223.4Z" fill="#89cbf0"/><path d="M177.1,208.1l6.8-.3a.8.8,0,0,0,.8-.9V204a.9.9,0,0,0-.9-.9,90.4,90.4,0,0,1-19.4-1.2,1,1,0,0,0-1,.9v.9c0,.8-.8,1.7-1.2,2.4H162v.6A132,132,0,0,0,177.1,208.1Z" fill="#89cbf0"/></g></g></g><g id="plugin"><path d="M291,142.2c10.3-23.4,12.7-51.1-.1-73.4-8.8-15.2-23.9-26.6-40.3-34.7S216.4,21,198.8,15.5C167.1,5.6,133.1-5.7,101.1,3.2,72,11.4,51.1,34.4,31.9,56.4,21,68.9,9.7,82.2,6.9,98.1c-2.1,11.9.9,24.2-1.6,36.1-1.8,8.9-6.8,17.9-4.2,26.7,1.7,5.6,6.3,10.1,10.8,14.2,32.8,30,71.8,55.7,116.6,64.8,26.4,5.3,54.8,3.9,80.2-4.9a113.5,113.5,0,0,0,35.4-19.6c5.4-4.4,7.4-7.4,9.2-13.7s4.8-10.5,9.4-16.1C273.8,172.2,284,157.9,291,142.2Z" fill="#107bc0" opacity="0.02"/><path d="M234.4,183.9c6.2-14,7.6-30.6-.1-44-5.2-9.1-14.2-15.9-24-20.7s-20.5-7.9-31.1-11.2c-19-5.9-39.3-12.7-58.5-7.3-17.4,4.8-29.9,18.7-41.4,31.8-6.6,7.5-13.3,15.4-15,25-1.2,7.1.5,14.5-.9,21.6-1.1,5.3-4.1,10.7-2.5,16,1,3.4,3.7,6.1,6.4,8.5,19.7,17.9,43,33.4,69.8,38.8a92,92,0,0,0,48-3,65.5,65.5,0,0,0,21.2-11.7c3.3-2.6,4.5-4.4,5.6-8.2s2.8-6.3,5.6-9.6C224.1,201.8,230.2,193.3,234.4,183.9Z" fill="#107bc0" opacity="0.02"/><g id="groundlevel" opacity="0.02"><path d="M298.6,246.3H1.4c-.8,0-1.4-1.3-1.4-2.9s.6-2.9,1.4-2.9H298.6c.8,0,1.4,1.3,1.4,2.9S299.4,246.3,298.6,246.3Z" fill="#107bc0"/></g><circle cx="49.4" cy="109.2" r="12.1" fill="#107bc0" opacity="0.1"/><g opacity="0.2"><path d="M54.9,110.9H48.5a.8.8,0,0,1-.7-.7v-7.3c0-.3.4-.6.7-.6a.7.7,0,0,1,.7.6v6.6h5.7a.7.7,0,0,1,0,1.4Z" fill="#107bc0"/></g><g id="plants" opacity="0.05"><path d="M229.8,176.9a8.4,8.4,0,0,1,4.9-6.1,7.5,7.5,0,0,1,7.7,1.3,9.2,9.2,0,0,1,2.6,5.5,22.2,22.2,0,0,1-.2,6.3c-.7,6.5-1.7,13-2.7,19.5-.4,2.4-.9,4.9-1.3,7.3-1.1.1-2.2-.3-3.3-.2a3.4,3.4,0,0,0,.1-1c.3-3.8,1.1-7.8.2-11.6s-3.2-6.9-5.2-10.1S229,180.7,229.8,176.9Z" fill="#107bc0"/><path d="M243.1,210.6h-2.4a43.6,43.6,0,0,1,9.9-19.2c3.8-4.3,19.8-18,26.2-12.4,3.9,3.4-3.8,6.7-6.6,8.7-4.8,3.2-9.7,6.1-14.3,9.5a50.9,50.9,0,0,0-12.5,13.3Z" fill="#107bc0"/><path d="M213,185.3c.9-1.9,3.5-2.6,5.6-2s3.8,2.2,5.3,3.7,4.8,5.3,7.1,8,7.7,8.3,7.9,13a9.3,9.3,0,0,1-.3,2.4l-2.8.3a31.1,31.1,0,0,0-3.2-5.6,30.5,30.5,0,0,0-12.8-11.3,20.7,20.7,0,0,1-5.2-3C213.1,189.4,212.1,187.2,213,185.3Z" fill="#107bc0"/></g><polygon points="255.7 210.4 220 210.4 228 240.9 246.9 240.9 255.7 210.4" fill="#107bc0" opacity="0.2"/></g></g></g></svg>